<svg width="512" height="512" xmlns="http://www.w3.org/2000/svg">
  <defs>
    <linearGradient id="grad1" x1="0%" y1="0%" x2="100%" y2="100%">
      <stop offset="0%" style="stop-color:#1e40af;stop-opacity:1" />
      <stop offset="100%" style="stop-color:#3b82f6;stop-opacity:1" />
    </linearGradient>
  </defs>
  <rect width="512" height="512" rx="64" fill="url(#grad1)"/>
  <g fill="white" transform="translate(128, 128)">
    <!-- Car icon -->
    <path d="M64 192L96 128H160L192 192V256H176V288H144V256H112V288H80V256H64V192ZM80 144L88 160H168L176 144H80ZM96 200C104.8 200 112 192.8 112 184S104.8 168 96 168S80 175.2 80 184S87.2 200 96 200ZM160 200C168.8 200 176 192.8 176 184S168.8 168 160 168S144 175.2 144 184S151.2 200 160 200Z"/>
    <!-- Debug/gear overlay -->
    <circle cx="200" cy="80" r="48" fill="#fbbf24"/>
    <path d="M200 48L208 64L224 56L232 72L216 80L232 88L224 104L208 96L200 112L192 96L176 104L168 88L184 80L168 72L176 56L192 64L200 48Z" fill="white"/>
  </g>
  <text x="256" y="400" text-anchor="middle" fill="white" font-family="Arial, sans-serif" font-size="36" font-weight="bold">DEBUG</text>
</svg>
